PathFileType	4	(X/Y/Z)	G:\TennisProject\Miami_Dimitrov_Sinner_masked_Sports2D\Miami_Dimitrov_Sinner_masked_Sports2D_m_person01.trc
DataRate	CameraRate	NumFrames	NumMarkers	Units	OrigDataRate	OrigDataStartFrame	OrigNumFrames
25	25	12	22	m	25	311	499
Frame#	Time	Hip			RHip			RKnee			RAnkle			RBigToe			RSmallToe			RHeel			LHip			LKnee			LAnkle			LBigToe			LSmallToe			LHeel			Neck			Head			Nose			RShoulder			RElbow			RWrist			LShoulder			LElbow			LWrist		
		X1	Y1	Z1	X2	Y2	Z2	X3	Y3	Z3	X4	Y4	Z4	X5	Y5	Z5	X6	Y6	Z6	X7	Y7	Z7	X8	Y8	Z8	X9	Y9	Z9	X10	Y10	Z10	X11	Y11	Z11	X12	Y12	Z12	X13	Y13	Z13	X14	Y14	Z14	X15	Y15	Z15	X16	Y16	Z16	X17	Y17	Z17	X18	Y18	Z18	X19	Y19	Z19	X20	Y20	Z20	X21	Y21	Z21	X22	Y22	Z22
311	12.44	10.239598981122878	-8.807935615126718	0.0	10.014222086846747	-8.813223961686	0.0	9.527643422375192	-8.843374426264486	0.0	9.346535793393976	-9.784680349461754	0.0	8.95054792484422	-9.926432262014853	0.0	8.983712091857575	-9.905598751435889	0.0	9.417823098737117	-9.986018877652667	0.0	10.261410996929898	-8.908663013719696	0.0	9.631340239745326	-9.736207760075875	0.0	10.296155399793035	-10.132973064931617	0.0	10.080416545588987	-10.561186379659839	0.0	10.16512220092987	-10.540256153134036	0.0	10.49716376079038	-10.175907817005013	0.0	9.573667972030334	-7.661560289043017	0.0	9.304900645290651	-7.171279432499815	0.0	9.341720429296094	-7.52366167713607	0.0	9.510578180965906	-7.79618620855524	0.0	9.389228186805495	-8.164315197471321	0.0	9.29755433537914	-8.546901960323469	0.0	9.826881481853789	-7.772951769032033	0.0	10.320958604066512	-8.166066706244793	0.0	9.839742645845503	-8.535506514329938	0.0
312	12.48	10.20402866178099	-8.826777835777133	0.0	9.98226426780696	-8.844877828809365	0.0	9.553222005947008	-8.838602852680804	0.0	9.357942946184004	-9.776176236356793	0.0	8.954365340717274	-9.913286167913899	0.0	8.990461076566795	-9.893473768814735	0.0	9.419801001260732	-9.975106240036288	0.0	10.171030389845564	-8.944213590589007	0.0	9.652761974731618	-9.799960639874493	0.0	10.25264217945825	-10.103363882212616	0.0	10.071930436124703	-10.570061430617976	0.0	10.151154908437432	-10.543826038632169	0.0	10.44129307089934	-10.13705591816808	0.0	9.555894340873595	-7.635611900829623	0.0	9.292868164224936	-7.197327229970139	0.0	9.272107479326856	-7.556138118156541	0.0	9.627650223067146	-7.762293412317386	0.0	9.364731199606489	-8.24948880891503	0.0	9.180792794875428	-8.707190958280547	0.0	9.720831814189411	-7.841056770653966	0.0	10.133435020389024	-8.346633419166807	0.0	9.85372750289624	-8.814522041106782	0.0
313	12.52	10.188077799512804	-8.85199031148771	0.0	10.0797309455302	-8.853571932878351	0.0	9.56097008790926	-8.869633001318755	0.0	9.36446244774323	-9.77769880872692	0.0	8.961797416675104	-9.906061652084954	0.0	8.98984914176235	-9.89045625122241	0.0	9.43133914942932	-9.968238061064598	0.0	10.084759287554606	-8.979517840763952	0.0	9.685028603494906	-9.854310304042682	0.0	10.21199360421982	-10.087217132524815	0.0	10.07021160999368	-10.581079605231674	0.0	10.135687681529475	-10.550218036619034	0.0	10.3911200149997	-10.113655700290145	0.0	9.55478220875907	-7.6171220386383816	0.0	9.266781122756006	-7.225498710010392	0.0	9.231334291334003	-7.592056561706028	0.0	9.808156984587892	-7.6699039615952	0.0	9.491548075911581	-8.176653734962253	0.0	9.198219411452932	-8.606499360464692	0.0	9.58744014885993	-7.929150456083053	0.0	9.903281249045476	-8.510617340971846	0.0	9.7354325689608	-9.02082016879565	0.0
314	12.56	10.18491886989605	-8.88451835869086	0.0	10.26249480525748	-8.854515074716302	0.0	9.54479299070002	-8.932266892443304	0.0	9.362517746351566	-9.788657454125453	0.0	8.968810150430414	-9.900786632131007	0.0	8.994187599964915	-9.889732407941617	0.0	9.436918168883647	-9.968124511923008	0.0	10.019314107009311	-9.009440273434697	0.0	9.68976982204817	-9.89298930329128	0.0	10.188354086612142	-10.09252115455643	0.0	10.07715644608439	-10.588196877948048	0.0	10.122840366595122	-10.556599249128794	0.0	10.375535894986504	-10.109687055020872	0.0	9.560333890890394	-7.627662248361296	0.0	9.22611794276156	-7.252480091601845	0.0	9.222409631181883	-7.621767148998297	0.0	9.93782097990439	-7.581119446784884	0.0	9.803471333189124	-7.851499604879628	0.0	9.461007468826137	-8.140939757298174	0.0	9.49638583410621	-8.01456285403569	0.0	9.70069171007687	-8.646316109302335	0.0	9.574813241039527	-9.184115886653117	0.0
315	12.6	10.192851939439299	-8.903038417874273	0.0	10.39141857538355	-8.862459990896689	0.0	9.549711367571936	-9.014650561527604	0.0	9.34422770505483	-9.805366184988697	0.0	8.952096580285765	-9.891822748903023	0.0	9.003811977091846	-9.877454079098671	0.0	9.413811332585567	-9.970421906084239	0.0	9.987496253053079	-9.022392094025836	0.0	9.644478606872948	-9.900663434761514	0.0	10.189708543534325	-10.112748752928246	0.0	10.091590241447678	-10.583678885728222	0.0	10.125429809566114	-10.55735467359166	0.0	10.392451384812821	-10.119966653880276	0.0	9.56879887065884	-7.639181884180409	0.0	9.22315460598042	-7.258040267770909	0.0	9.235658645507558	-7.621920757222462	0.0	9.993484388001209	-7.523625666879004	0.0	10.177065799418681	-7.424158264954851	0.0	9.982254418396488	-7.457583651491602	0.0	9.45266526702694	-8.063058114575158	0.0	9.564998607301142	-8.731951394027076	0.0	9.459460665113431	-9.308178214533077	0.0
316	12.64	10.206725414839994	-8.892009750829699	0.0	10.424088496492304	-8.855234105750792	0.0	9.580039265704748	-9.082906306274587	0.0	9.313725468090492	-9.820698868093485	0.0	8.926971092617515	-9.874828373592857	0.0	9.017058219781429	-9.855649378469272	0.0	9.36647954155086	-9.971755185893485	0.0	9.989181423594134	-9.003788462915946	0.0	9.570263876553975	-9.861453744481224	0.0	10.199226485269014	-10.129513217888064	0.0	10.111532043944004	-10.577288942817397	0.0	10.142691117759297	-10.558756427428385	0.0	10.407605284036036	-10.139446639781687	0.0	9.592462678314487	-7.629276004152801	0.0	9.270065353562067	-7.222901652656456	0.0	9.280759755558716	-7.578685621632373	0.0	10.032585393933891	-7.477680736971928	0.0	10.461119830020964	-7.1348834475106955	0.0	10.588941179061775	-6.8850714837301075	0.0	9.448098543681446	-8.064764517199363	0.0	9.515765301726326	-8.740936196220723	0.0	9.42355063408052	-9.356085847924051	0.0
317	12.68	10.22840424452136	-8.855046722287064	0.0	10.435641880745646	-8.817177374342284	0.0	9.600408443145316	-9.133027495875659	0.0	9.298892073954786	-9.827297330311318	0.0	8.9254172214882	-9.854640421579132	0.0	9.035881580386787	-9.839319704064783	0.0	9.335104819796717	-9.973497084952726	0.0	10.020577142426946	-8.954358852534861	0.0	9.524734492384768	-9.775967395035432	0.0	10.201856644696589	-10.13744762986397	0.0	10.134062777370257	-10.585960174040697	0.0	10.155981428739972	-10.572677546299122	0.0	10.409588148454446	-10.164078169590583	0.0	9.644631520655938	-7.5817855681148725	0.0	9.345901801744786	-7.141370941086457	0.0	9.361254515143482	-7.488459234103532	0.0	10.096550690231664	-7.421104563283921	0.0	10.63988960646604	-7.028049910276617	0.0	11.04241654067315	-6.605891827778723	0.0	9.486212670396494	-8.021050911622511	0.0	9.558774279953566	-8.670367088808952	0.0	9.479765115893313	-9.30409742919021	0.0
318	12.72	10.275887627121657	-8.7934841418728	0.0	10.479909497325746	-8.75284424011668	0.0	9.622829704772478	-9.173038100806568	0.0	9.3157703109979	-9.824568099717133	0.0	8.940026452103366	-9.844779889258405	0.0	9.05102002468569	-9.8336282728808	0.0	9.346328648126812	-9.972698917503806	0.0	10.085795744868443	-8.878965378802409	0.0	9.555929808092962	-9.67187336493459	0.0	10.212467563851593	-10.155011195018261	0.0	10.143845456575741	-10.606607090635482	0.0	10.150574842803135	-10.595208406007186	0.0	10.417440855325223	-10.193819382568064	0.0	9.732576845838729	-7.486134823928149	0.0	9.445262105560692	-7.018280104959282	0.0	9.471902126876287	-7.359706675307496	0.0	10.187068732282107	-7.345906859019877	0.0	10.765973832175222	-6.99617193711753	0.0	11.251372334065737	-6.561255786814672	0.0	9.5693128742448	-7.928024405483939	0.0	9.66621164850141	-8.547336177812204	0.0	9.612263223546831	-9.173432374344445	0.0
319	12.76	10.358801342840655	-8.707386722594931	0.0	10.55831784498269	-8.667529255902082	0.0	9.694490410539885	-9.17411670106414	0.0	9.348151900366336	-9.814795636253791	0.0	8.960347913671683	-9.815675266003248	0.0	9.0650774952136	-9.803229089758949	0.0	9.378086298342497	-9.958887977689809	0.0	10.18109164672691	-8.785049264648793	0.0	9.6539264395826	-9.583218507094244	0.0	10.245729742582983	-10.192669806402778	0.0	10.12873716216869	-10.627900135542612	0.0	10.132628011374269	-10.616703013125148	0.0	10.441196180588491	-10.235633132154241	0.0	9.852633622960923	-7.356826784037152	0.0	9.574649042827703	-6.871794003392025	0.0	9.608051490900971	-7.219678801831658	0.0	10.28803823026448	-7.2552493336963995	0.0	10.844559931892428	-6.988038712422604	0.0	11.27750813670364	-6.641089710368701	0.0	9.686153345630354	-7.78678608287954	0.0	9.79763212598842	-8.391086431135454	0.0	9.789575299915196	-8.994366620690677	0.0
320	12.8	10.46186740149549	-8.610153620657913	0.0	10.654913737820136	-8.572775031434949	0.0	9.811201898361134	-9.116767012388397	0.0	9.399767720179838	-9.798884464835885	0.0	9.019368698916177	-9.72877799914051	0.0	9.112420445079987	-9.720527803356637	0.0	9.421783069379787	-9.9388722592147	0.0	10.288146705818265	-8.687974598087152	0.0	9.760561265405002	-9.514801188380535	0.0	10.282817473800955	-10.226589849571255	0.0	10.10742775340559	-10.64428507242743	0.0	10.117643411212542	-10.631868709790467	0.0	10.466503572350362	-10.284319789921204	0.0	9.982622089392297	-7.22871028704378	0.0	9.723081894793049	-6.731734419111557	0.0	9.744966671983333	-7.097231334495953	0.0	10.385482009908861	-7.164230093356594	0.0	10.875286742075545	-7.002780418387599	0.0	11.23395723430949	-6.768455466931835	0.0	9.809916734531107	-7.626644919401598	0.0	9.927914055277686	-8.21801242571482	0.0	9.979776542495365	-8.80274240221381	0.0
321	12.84	10.567976166197667	-8.529604056118451	0.0	10.762129102117713	-8.495001576791296	0.0	9.942889762202622	-9.032219562100046	0.0	9.524517089461357	-9.778367978683262	0.0	9.15745003307264	-9.656155461197304	0.0	9.231181272238281	-9.660455710216356	0.0	9.531665645149804	-9.929565921432472	0.0	10.392147898170624	-8.607563804917175	0.0	9.827618654200332	-9.44449875685597	0.0	10.295187433105111	-10.23259507144057	0.0	10.083529844816558	-10.645556412698586	0.0	10.102211716578173	-10.631743584013767	0.0	10.470004630161782	-10.318962565707757	0.0	10.104513621943179	-7.136046124322489	0.0	9.865392703398202	-6.620665977772572	0.0	9.86340242387345	-6.997971303082262	0.0	10.48070938881175	-7.0974221025286	0.0	10.91501934413166	-7.026228478654169	0.0	11.225171600999719	-6.877646215449234	0.0	9.918069042264019	-7.501699960919222	0.0	10.041914688211406	-8.074456953920611	0.0	10.137467629000433	-8.655538608626562	0.0
322	12.88	10.670866696551645	-8.493258538696145	0.0	10.877169163981915	-8.466111655479157	0.0	10.10515769279675	-8.962925994779162	0.0	9.776319618629941	-9.76016500901318	0.0	9.401321429730011	-9.707886358852967	0.0	9.464885145990614	-9.717089885867994	0.0	9.773700994511302	-9.926101202112905	0.0	10.485617811978218	-8.569776539774892	0.0	9.855685152272608	-9.369019218570765	0.0	10.272887562172048	-10.229177752870338	0.0	10.019811260162356	-10.621467598216345	0.0	10.062097357819658	-10.613592099610166	0.0	10.436279920950245	-10.34063114774013	0.0	10.22046114807082	-7.0899486949612465	0.0	10.00305721845374	-6.549245391478735	0.0	9.990361913452128	-6.917675302603523	0.0	10.585382507343024	-7.072486759998673	0.0	11.02771727169663	-7.045269400513637	0.0	11.305352812146051	-6.929158413870712	0.0	10.009889536399504	-7.440954164687096	0.0	10.132686354679139	-8.009917474116238	0.0	10.226775618430604	-8.596078374222936	0.0
